<?xml version="1.0" encoding="utf-8"?>
<!-- Generator: Adobe Illustrator 25.1.0, SVG Export Plug-In . SVG Version: 6.00 Build 0)  -->
<svg version="1.1" id="Layer_1" xmlns="http://www.w3.org/2000/svg" xmlns:xlink="http://www.w3.org/1999/xlink" x="0px" y="0px"
	 viewBox="0 0 305.14 314.86" style="enable-background:new 0 0 305.14 314.86;" xml:space="preserve">
<style type="text/css">
	.st0{fill:none;}
</style>
<g>
	<path d="M268.53,168.94c-4.18-4.84-8.92-9.12-14.14-12.71c-11.6-8.03-25.48-12.71-40.39-12.71s-28.79,4.68-40.39,12.71
		c-5.21,3.59-9.96,7.87-14.14,12.71H214c27.64,0,50.12,23.24,50.12,51.79c0,28.57-22.48,51.8-50.12,51.8h-54.52
		c13.47,15.61,32.92,25.42,54.52,25.42c21.6,0,41.05-9.81,54.52-25.42c11.84-13.71,19.06-31.89,19.06-51.8
		C287.58,200.83,280.36,182.65,268.53,168.94z M163.88,220.73c0-4.38,0.53-8.64,1.53-12.71h-23.98c-0.67,4.14-1,8.38-1,12.71
		c0,4.33,0.34,8.57,1,12.71h23.97C164.4,229.38,163.88,225.11,163.88,220.73z"/>
	<path class="st0" d="M264.12,220.73c0,28.57-22.48,51.8-50.12,51.8h-54.52c-9.27-10.73-15.7-24.19-18.05-39.09H214
		c6.48,0,11.73-5.68,11.73-12.71c0-7.02-5.24-12.71-11.73-12.71h-72.57c2.35-14.89,8.78-28.35,18.04-39.08H214
		C241.64,168.94,264.12,192.18,264.12,220.73z"/>
</g>
<g>
	<path d="M163.87,91.72c0-4.38,0.53-8.64,1.52-12.71h-23.97c-0.67,4.14-1,8.38-1,12.71s0.34,8.57,1,12.71h23.98
		C164.4,100.37,163.87,96.1,163.87,91.72z M268.52,39.92C255.04,24.31,235.59,14.49,214,14.49s-41.05,9.81-54.52,25.42H214
		c27.64,0,50.12,23.24,50.12,51.8c0,28.56-22.48,51.79-50.12,51.79h-54.53c4.18,4.84,8.93,9.12,14.14,12.71
		c11.6,8.03,25.48,12.71,40.39,12.71s28.79-4.68,40.39-12.71c5.22-3.59,9.96-7.87,14.14-12.71c11.83-13.71,19.05-31.89,19.05-51.79
		C287.57,71.81,280.36,53.63,268.52,39.92z"/>
	<path class="st0" d="M264.12,91.72c0,28.56-22.48,51.79-50.12,51.79h-54.53c-9.26-10.73-15.69-24.19-18.04-39.08H214
		c6.48,0,11.73-5.69,11.73-12.71c0-7.03-5.24-12.71-11.73-12.71h-72.57c2.35-14.9,8.78-28.36,18.05-39.09H214
		C241.64,39.92,264.12,63.15,264.12,91.72z"/>
</g>
<g>
	<path class="st0" d="M316.61,27.21c0,7.03-5.25,12.71-11.73,12.71h-36.37C255.04,24.31,235.59,14.49,214,14.49h90.89
		C311.36,14.49,316.61,20.19,316.61,27.21z"/>
	<path d="M268.52,39.92H44.88c-6.47,0-11.73-5.68-11.73-12.71c0-7.02,5.25-12.71,11.73-12.71H214
		C235.59,14.49,255.04,24.31,268.52,39.92z"/>
</g>
<g>
	<path d="M225.73,91.72c0,7.02-5.24,12.71-11.73,12.71H44.88c-6.47,0-11.73-5.69-11.73-12.71c0-7.03,5.25-12.71,11.73-12.71H214
		C220.48,79.01,225.73,84.69,225.73,91.72z"/>
</g>
<g>
	<path class="st0" d="M316.61,156.23c0,7.02-5.25,12.71-11.73,12.71h-36.36c-4.18-4.84-8.92-9.12-14.14-12.71
		c5.22-3.59,9.96-7.87,14.14-12.71h36.36C311.36,143.51,316.61,149.21,316.61,156.23z"/>
	<path d="M268.53,168.94H44.88c-6.47,0-11.73-5.69-11.73-12.71c0-7.02,5.25-12.71,11.73-12.71h223.65
		c-4.18,4.84-8.92,9.12-14.14,12.71C259.61,159.82,264.35,164.1,268.53,168.94z"/>
</g>
<g>
	<path d="M225.73,220.73c0,7.03-5.24,12.71-11.73,12.71H44.88c-6.47,0-11.73-5.68-11.73-12.71c0-7.02,5.25-12.71,11.73-12.71H214
		C220.48,208.02,225.73,213.71,225.73,220.73z"/>
</g>
<g>
	<path class="st0" d="M315.68,285.25c0,7.02-5.25,12.71-11.73,12.71H214c21.6,0,41.05-9.81,54.52-25.42h35.43
		C310.42,272.53,315.68,278.22,315.68,285.25z"/>
	<path d="M268.52,272.53c-13.47,15.61-32.92,25.42-54.52,25.42H44.88c-6.47,0-11.73-5.69-11.73-12.71c0-7.03,5.25-12.71,11.73-12.71
		H268.52z"/>
</g>
</svg>
