<?xml version="1.0" encoding="utf-8"?>
<!-- Generator: Adobe Illustrator 25.1.0, SVG Export Plug-In . SVG Version: 6.00 Build 0)  -->
<svg version="1.1" id="Layer_1" xmlns="http://www.w3.org/2000/svg" xmlns:xlink="http://www.w3.org/1999/xlink" x="0px" y="0px"
	 viewBox="0 0 305.1 314.9" style="enable-background:new 0 0 305.1 314.9;" xml:space="preserve">
<style type="text/css">
	.st0{fill:#FFFFFF;}
</style>
<g>
	<path class="st0" d="M268.5,168.9c-4.2-4.8-8.9-9.1-14.1-12.7c-11.6-8-25.5-12.7-40.4-12.7s-28.8,4.7-40.4,12.7
		c-5.2,3.6-10,7.9-14.1,12.7H214c27.6,0,50.1,23.2,50.1,51.8c0,28.6-22.5,51.8-50.1,51.8h-54.5c13.5,15.6,32.9,25.4,54.5,25.4
		s41.1-9.8,54.5-25.4c11.8-13.7,19.1-31.9,19.1-51.8C287.6,200.8,280.4,182.6,268.5,168.9z M163.9,220.7c0-4.4,0.5-8.6,1.5-12.7h-24
		c-0.7,4.1-1,8.4-1,12.7s0.3,8.6,1,12.7h24C164.4,229.4,163.9,225.1,163.9,220.7z"/>
	<path class="st0" d="M264.1,220.7c0,28.6-22.5,51.8-50.1,51.8h-54.5c-9.3-10.7-15.7-24.2-18.1-39.1H214c6.5,0,11.7-5.7,11.7-12.7
		c0-7-5.2-12.7-11.7-12.7h-72.6c2.4-14.9,8.8-28.4,18-39.1H214C241.6,168.9,264.1,192.2,264.1,220.7z"/>
</g>
<g>
	<path class="st0" d="M163.9,91.7c0-4.4,0.5-8.6,1.5-12.7h-24c-0.7,4.1-1,8.4-1,12.7s0.3,8.6,1,12.7h24
		C164.4,100.4,163.9,96.1,163.9,91.7z M268.5,39.9C255,24.3,235.6,14.5,214,14.5s-41.1,9.8-54.5,25.4H214
		c27.6,0,50.1,23.2,50.1,51.8s-22.5,51.8-50.1,51.8h-54.5c4.2,4.8,8.9,9.1,14.1,12.7c11.6,8,25.5,12.7,40.4,12.7s28.8-4.7,40.4-12.7
		c5.2-3.6,10-7.9,14.1-12.7c11.8-13.7,19-31.9,19-51.8C287.6,71.8,280.4,53.6,268.5,39.9z"/>
	<path class="st0" d="M264.1,91.7c0,28.6-22.5,51.8-50.1,51.8h-54.5c-9.3-10.7-15.7-24.2-18-39.1H214c6.5,0,11.7-5.7,11.7-12.7
		c0-7-5.2-12.7-11.7-12.7h-72.6c2.4-14.9,8.8-28.4,18.1-39.1H214C241.6,39.9,264.1,63.2,264.1,91.7z"/>
</g>
<g>
	<path class="st0" d="M316.6,27.2c0,7-5.2,12.7-11.7,12.7h-36.4C255,24.3,235.6,14.5,214,14.5h90.9
		C311.4,14.5,316.6,20.2,316.6,27.2z"/>
	<path class="st0" d="M268.5,39.9H44.9c-6.5,0-11.7-5.7-11.7-12.7c0-7,5.2-12.7,11.7-12.7H214C235.6,14.5,255,24.3,268.5,39.9z"/>
</g>
<g>
	<path class="st0" d="M225.7,91.7c0,7-5.2,12.7-11.7,12.7H44.9c-6.5,0-11.7-5.7-11.7-12.7c0-7,5.2-12.7,11.7-12.7H214
		C220.5,79,225.7,84.7,225.7,91.7z"/>
</g>
<g>
	<path class="st0" d="M316.6,156.2c0,7-5.2,12.7-11.7,12.7h-36.4c-4.2-4.8-8.9-9.1-14.1-12.7c5.2-3.6,10-7.9,14.1-12.7h36.4
		C311.4,143.5,316.6,149.2,316.6,156.2z"/>
	<path class="st0" d="M268.5,168.9H44.9c-6.5,0-11.7-5.7-11.7-12.7s5.2-12.7,11.7-12.7h223.6c-4.2,4.8-8.9,9.1-14.1,12.7
		C259.6,159.8,264.4,164.1,268.5,168.9z"/>
</g>
<g>
	<path class="st0" d="M225.7,220.7c0,7-5.2,12.7-11.7,12.7H44.9c-6.5,0-11.7-5.7-11.7-12.7c0-7,5.2-12.7,11.7-12.7H214
		C220.5,208,225.7,213.7,225.7,220.7z"/>
</g>
<g>
	<path class="st0" d="M315.7,285.2c0,7-5.2,12.7-11.7,12.7H214c21.6,0,41.1-9.8,54.5-25.4h35.4C310.4,272.5,315.7,278.2,315.7,285.2
		z"/>
	<path class="st0" d="M268.5,272.5C255,288.1,235.6,298,214,298H44.9c-6.5,0-11.7-5.7-11.7-12.7c0-7,5.2-12.7,11.7-12.7L268.5,272.5
		L268.5,272.5z"/>
</g>
</svg>
